An abused runaway with pyromaniac tendencies teams up with a metal sculptor.
Together they blow away the art world and a local crime boss.


Action | Crime | Drama


Format : AVI
Format/Info : Audio Video Interleave
File size : 1.37 GiB
Duration : 1h 52mn
Overall bit rate : 1 736 Kbps
Writing application : VirtualDubMod 1.5.10.2 (build 2542/release)
Writing library : VirtualDubMod build 2542/release

Video
ID : 0
Format : MPEG-4 Visual
Format profile : Advanced Simple@L5
Format settings, BVOP : Yes
Format settings, QPel : Yes
Format settings, GMC : No warppoints
Format settings, Matrix : Default (H.263)
Muxing mode : Packed bitstream
Codec ID : XVID
Codec ID/Hint : XviD
Duration : 1h 52mn
Bit rate : 1 598 Kbps
Width : 696 pixels
Height : 352 pixels
Display aspect ratio : 1.977
Frame rate : 29.970 fps
Color space : YUV
Chroma subsampling : 4:2:0
Bit depth : 8 bits
Scan type : Progressive
Bits/(Pixel*Frame) : 0.218
Stream size : 1.26 GiB (92%)
Writing library : XviD 58

Audio
ID : 1
Format : MPEG Audio
Format version : Version 1
Format profile : Layer 3
Mode : Joint stereo
Mode extension : MS Stereo
Codec ID : 55
Codec ID/Hint : MP3
Duration : 1h 52mn
Bit rate mode : Variable
Bit rate : 124 Kbps
Channel(s) : 2 channels
Sampling rate : 48.0 KHz
Stream size : 99.9 MiB (7%)
Alignment : Aligned on interleaves
Interleave, duration : 24 ms (0.72 video frame)
Interleave, preload duration : 516 ms 